<?xml version="1.0" encoding="iso-8859-1"?>
<!-- Generator: Adobe Illustrator 19.0.0, SVG Export Plug-In . SVG Version: 6.00 Build 0)  -->
<svg version="1.1" id="Capa_1" xmlns="http://www.w3.org/2000/svg" xmlns:xlink="http://www.w3.org/1999/xlink" x="0px" y="0px"
	 viewBox="0 0 511.999 511.999" style="enable-background:new 0 0 511.999 511.999;" xml:space="preserve">
<g>
	<path style="fill:#F25353;" d="M87.194,123.466c-9.005,0-17.125,3.927-22.862,10.221c-5.737-6.294-13.857-10.221-22.862-10.221
		c-17.38,0-31.47,14.629-31.47,32.673c0,30.418,54.332,60.09,54.332,60.09s54.332-29.672,54.332-60.09
		C118.665,138.094,104.575,123.466,87.194,123.466z"/>
	<path style="fill:#F25353;" d="M198.391,10.007c-6.326,0-12.031,2.759-16.061,7.18c-4.03-4.421-9.735-7.18-16.061-7.18
		c-12.21,0-22.108,10.277-22.108,22.953c0,21.368,38.169,42.213,38.169,42.213s38.169-20.844,38.169-42.213
		C220.499,20.283,210.601,10.007,198.391,10.007z"/>
</g>
<path style="fill:#D0E6EF;" d="M486.834,278.529l-3.071-3.071c22.139-28.89,5.672-62.361-11.184-79.216l-10.596-11.222
	c4.914-27.351-10.26-54.243-25.699-69.683c-22.044-22.044-24.45-24.45-24.45-24.45l-111.599,111.6
	c-17.064,17.064-35.308,48.456-36.767,83.368l-0.055-0.042v-36.302c0-39.135-31.725-70.86-70.86-70.86l0,0
	c-39.135,0-70.86,31.725-70.86,70.86v108.521c0,79.507,64.453,143.96,143.959,143.96h208.523v-97.637l-52.565,33.639l11.671-42.793
	c21.703-21.703,46.673-46.673,57.427-57.427C511.603,316.88,499.369,291.066,486.834,278.529z"/>
<path d="M128.665,156.14c0-23.529-18.603-42.673-41.471-42.673c-8.164,0-16.129,2.515-22.862,7.081
	c-6.732-4.567-14.697-7.081-22.861-7.081C18.603,113.467,0,132.609,0,156.14c0,35.331,53.444,65.538,59.539,68.866
	c1.493,0.815,3.144,1.224,4.793,1.224s3.3-0.408,4.793-1.224C75.22,221.678,128.665,191.47,128.665,156.14z M64.332,204.695
	c-18.867-11.346-44.333-32.213-44.333-48.555c0-12.502,9.632-22.673,21.471-22.673c5.889,0,11.383,2.471,15.472,6.957
	c1.895,2.079,4.577,3.264,7.391,3.264c2.813,0,5.495-1.185,7.391-3.264c4.09-4.486,9.585-6.957,15.473-6.957
	c11.84,0,21.471,10.172,21.471,22.673C108.666,172.482,83.196,193.352,64.332,204.695z"/>
<path d="M177.537,83.949c1.493,0.815,3.144,1.224,4.793,1.224c1.649,0,3.3-0.408,4.793-1.224
	c4.439-2.425,43.376-24.454,43.376-50.989c0-18.169-14.403-32.952-32.107-32.952c-5.671,0-11.217,1.562-16.061,4.429
	c-4.844-2.867-10.389-4.429-16.061-4.429c-17.704,0-32.108,14.783-32.108,32.952C134.162,59.495,173.099,81.524,177.537,83.949z
	 M166.27,20.007c3.289,0,6.368,1.391,8.669,3.916c1.895,2.079,4.578,3.265,7.391,3.265c0.001,0,0.001,0,0.001,0
	c2.813,0,5.496-1.185,7.391-3.264c2.303-2.526,5.382-3.917,8.671-3.917c6.677,0,12.108,5.811,12.108,12.953
	c0,9.273-15.413,22.616-28.169,30.614c-12.761-8.002-28.169-21.342-28.169-30.614C154.161,25.817,159.594,20.007,166.27,20.007z"/>
<path d="M483.638,330.703l-48.855,48.855c-3.905,3.905-3.905,10.237,0,14.143c1.953,1.952,4.512,2.929,7.071,2.929
	c2.559,0,5.118-0.977,7.071-2.929l48.855-48.855c11.688-11.688,16.304-26.103,13.353-41.688
	c-1.926-10.168-7.177-20.498-14.582-28.87c7.248-12.597,9.586-26.729,6.761-41.646c-2.941-15.53-11.566-31.374-23.661-43.471
	l-3.877-3.877c-0.994-0.993-2.145-1.731-3.373-2.219c0.921-7.438,0.653-15.137-0.84-23.021
	c-3.502-18.487-13.782-37.363-28.205-51.787l-24.45-24.449c-3.906-3.904-10.236-3.904-14.143,0L293.165,195.417
	c-7.594,7.594-15.917,18.43-22.978,31.532c-9.793-33.637-40.877-58.296-77.633-58.296c-42.875,0-78.046,33.548-80.682,75.771
	l-22.263,22.728c-2.817,2.876-3.635,7.16-2.075,10.872c1.56,3.711,5.193,6.125,9.219,6.125h14.943v73.885
	c0,84.893,69.065,153.959,153.958,153.959h208.523c5.522,0,10-4.478,10-10v-97.638c0-3.654-1.993-7.018-5.199-8.772
	s-7.114-1.62-10.191,0.35l-52.564,33.64c-4.651,2.977-6.009,9.161-3.032,13.813c2.978,4.651,9.158,6.011,13.813,3.032l37.175-23.79
	v69.366H265.654c-73.865,0-133.959-60.094-133.959-133.96c0,0,0.405-110.262,0.087-111.755c1.687-32.06,28.299-57.626,60.773-57.626
	c33.558,0,60.859,27.302,60.859,60.859v36.304c0,0.215,0.019,0.425,0.032,0.636c-0.819,25.099,6.149,56.977,35.98,86.809
	l23.959,23.959c1.953,1.952,4.512,2.929,7.071,2.929s5.118-0.977,7.071-2.929c3.905-3.905,3.905-10.237,0-14.143l-23.959-23.959
	c-24.212-24.212-33.957-52.615-28.963-84.421c4.455-28.372,19.812-52.251,32.701-65.139l104.527-104.528l17.379,17.379
	c17.985,17.985,39.66,57.188,6.815,90.033l-61.797,61.797c-3.905,3.905-3.905,10.237,0,14.143c3.906,3.904,10.236,3.904,14.143,0
	l61.797-61.797c6.94-6.94,12.32-14.475,16.105-22.475c8.793,9.099,15.269,21.071,17.385,32.253
	c2.729,14.41-1.495,27.323-12.555,38.383l-70.568,70.568c-3.905,3.905-3.905,10.237,0,14.143c1.953,1.952,4.512,2.929,7.071,2.929
	c2.559,0,5.118-0.977,7.071-2.929l69.093-69.093C489.783,298.477,498.824,315.518,483.638,330.703z"/>
<path d="M352.013,296.458l-0.264,0.264c-1.952,1.952-2.929,4.512-2.929,7.071c0,2.559,0.977,5.118,2.929,7.071
	c1.953,1.952,4.513,2.929,7.071,2.929c2.56,0,5.119-0.977,7.071-2.929l0.264-0.264c3.905-3.905,3.905-10.237,0-14.143
	C362.25,292.554,355.92,292.554,352.013,296.458z"/>
<path d="M176.883,274.382c5.522,0,10-4.478,10-10c0-5.522-4.478-10-10-10h-0.53c-5.522,0-10,4.478-10,10c0,5.522,4.478,10,10,10
	H176.883z"/>
<path d="M200.557,450.289c19.109,13.507,41.62,20.645,65.097,20.645c5.522,0,10-4.478,10-10s-4.478-10-10-10
	c-38.603,0-73.597-24.291-87.077-60.446c-1.931-5.175-7.69-7.801-12.864-5.876c-5.175,1.93-7.806,7.689-5.876,12.864
	C167.797,418.824,181.877,437.086,200.557,450.289z"/>
<path d="M152.767,358.571c-0.001-0.02-0.004-0.039-0.004-0.058c0-0.005-0.001-0.011-0.001-0.016
	C152.763,358.522,152.766,358.546,152.767,358.571z"/>
<path d="M152.767,358.571c0.174,5.384,4.587,9.676,9.988,9.675c0.035,0,0.07,0,0.105-0.001c5.522-0.057,9.953-4.58,9.896-10.103
	c-0.001-0.114-0.004-0.228-0.009-0.341c-0.122-5.416-4.551-9.77-9.997-9.77c-5.522,0-10,4.478-10,10c0,0.146,0.003,0.29,0.009,0.434
	c0,0.016,0.003,0.031,0.003,0.047c0.113,2.38,1.055,4.572,2.545,6.262C153.802,363.106,152.855,360.937,152.767,358.571z"/>
<g>
</g>
<g>
</g>
<g>
</g>
<g>
</g>
<g>
</g>
<g>
</g>
<g>
</g>
<g>
</g>
<g>
</g>
<g>
</g>
<g>
</g>
<g>
</g>
<g>
</g>
<g>
</g>
<g>
</g>
</svg>
