<?xml version="1.0" encoding="iso-8859-1"?>
<!-- Generator: Adobe Illustrator 19.0.0, SVG Export Plug-In . SVG Version: 6.00 Build 0)  -->
<svg version="1.1" id="Capa_1" xmlns="http://www.w3.org/2000/svg" xmlns:xlink="http://www.w3.org/1999/xlink" x="0px" y="0px"
	 viewBox="0 0 510.933 510.933" style="enable-background:new 0 0 510.933 510.933;" xml:space="preserve">
<polygon style="fill:#F05540;" points="265.067,60.8 272.533,52.267 255.467,35.2 238.4,52.267 245.867,60.8 "/>
<polygon style="fill:#F3705A;" points="265.067,60.8 272.533,142.933 255.467,160 238.4,142.933 245.867,60.8 "/>
<g>
	<path style="fill:#F3F3F3;" d="M276.8,0l10.667,14.933L273.6,58.667L255.467,35.2C265.067,26.667,274.667,16,276.8,0z"/>
	<path style="fill:#F3F3F3;" d="M234.133,0l-10.667,14.933l13.867,43.733L255.467,35.2C245.867,26.667,236.267,16,234.133,0z"/>
</g>
<g>
	<path style="fill:#344A5E;" d="M319.467,237.867h-124.8L196.8,252.8c0,0-4.267,45.867,2.133,73.6c5.333,28.8,16,81.067,12.8,102.4
		c-1.067,5.333,0,10.667,0,16l2.133,38.4c0,0-4.267,12.8,1.067,22.4c0,0,32-1.067,39.467,1.067c0,0,5.333-38.4-3.2-51.2
		c0,0,0-5.333-1.067-10.667c0-2.133,0-5.333,0-7.467c0,0,2.133-11.733,3.2-14.933c1.067-3.2,4.267-88.533,2.133-102.4
		c-2.133-13.867,2.133-34.133,5.333-23.467c2.133,10.667-3.2,43.733,0,72.533c2.133,21.333,3.2,54.4,3.2,75.733l0,0v1.067
		c-6.4,22.4-5.333,59.733-3.2,65.067c0,0,27.733-7.467,36.267-2.133c0,0,8.533-28.8,6.4-43.733c-1.067-4.267,0-11.733,1.067-19.2
		c0-3.2,10.667-99.2,10.667-99.2s7.467-74.667,5.333-81.067C318.4,263.467,318.4,250.667,319.467,237.867z"/>
	<path style="fill:#344A5E;" d="M144.533,174.933l11.733,94.933c0,0,21.333,16,35.2-3.2c0,0-11.733-73.6-11.733-91.733
		c-1.067-17.067,6.4-73.6,6.4-73.6l19.2-41.6L168,36.267c-5.333,2.133-9.6,6.4-9.6,12.8L144.533,174.933z"/>
</g>
<path style="fill:#415A6B;" d="M156.267,269.867c0,0,21.333,16,35.2-3.2C191.467,266.667,170.133,250.667,156.267,269.867z"/>
<path style="fill:#344A5E;" d="M366.4,174.933l-11.733,94.933c0,0-21.333,16-35.2-3.2c0,0,11.733-73.6,11.733-91.733
	c1.067-17.067-6.4-73.6-6.4-73.6l-19.2-41.6l37.333-23.467c5.333,2.133,9.6,6.4,9.6,12.8L366.4,174.933z"/>
<g>
	<path style="fill:#415A6B;" d="M354.667,269.867c0,0-21.333,16-35.2-3.2C319.467,266.667,340.8,250.667,354.667,269.867z"/>
	<path style="fill:#415A6B;" d="M213.867,18.133l-8.533,6.4L168,37.333c0,0,20.267,48,18.133,73.6c0,0,5.333,114.133,1.067,144
		c0,4.267,2.133,7.467,6.4,8.533c9.6,2.133,18.133,3.2,27.733,3.2c21.333,1.067,38.4-16,38.4-37.333v-74.667
		c0,0-39.467-90.667-40.533-112C219.2,23.467,213.867,18.133,213.867,18.133z"/>
</g>
<path style="fill:#344A5E;" d="M255.467,146.133c-4.267,5.333-7.467,8.533-7.467,8.533V230.4c0,7.467,2.133,13.867,5.333,20.267
	c1.067-1.067,2.133-3.2,2.133-4.267l0,0c0-1.067,1.067-1.067,1.067-2.133V243.2c0-1.067,0-1.067,1.067-2.133
	c0-1.067,0-2.133,1.067-3.2V236.8c0-1.067,0-1.067,0-2.133V233.6c0-1.067,0-2.133,0-3.2l0,0v-74.667l0,0
	C259.733,155.733,257.6,152.533,255.467,146.133z"/>
<path style="fill:#415A6B;" d="M297.067,18.133l8.533,6.4l37.333,12.8c0,0-20.267,48-18.133,73.6c0,0-5.333,114.133-1.067,144
	c0,4.267-2.133,7.467-6.4,8.533c-9.6,2.133-18.133,3.2-27.733,3.2c-21.333,0-38.4-16-38.4-37.333v-74.667
	c0,0,39.467-90.667,40.533-112C291.733,23.467,297.067,18.133,297.067,18.133z"/>
<g>
	<circle style="fill:#344A5E;" cx="262.933" cy="168.533" r="4.267"/>
	<circle style="fill:#344A5E;" cx="262.933" cy="193.067" r="4.267"/>
	<circle style="fill:#344A5E;" cx="262.933" cy="218.667" r="4.267"/>
	<path style="fill:#344A5E;" d="M254.4,150.4c0-1.067,1.067-2.133,2.133-3.2C241.6,100.267,229.867,53.333,228.8,7.467l-22.4,17.067
		l9.6,6.4l-10.667-1.067C204.267,29.867,227.733,112,254.4,150.4z"/>
	<path style="fill:#344A5E;" d="M282.133,7.467l22.4,17.067l-9.6,6.4l10.667-1.067c0,0-25.6,91.733-55.467,125.867
		C268.267,105.6,281.067,55.467,282.133,7.467z"/>
</g>
<g>
</g>
<g>
</g>
<g>
</g>
<g>
</g>
<g>
</g>
<g>
</g>
<g>
</g>
<g>
</g>
<g>
</g>
<g>
</g>
<g>
</g>
<g>
</g>
<g>
</g>
<g>
</g>
<g>
</g>
</svg>
