<?xml version="1.0" encoding="iso-8859-1"?>
<!-- Generator: Adobe Illustrator 19.0.0, SVG Export Plug-In . SVG Version: 6.00 Build 0)  -->
<svg version="1.1" id="Capa_1" xmlns="http://www.w3.org/2000/svg" xmlns:xlink="http://www.w3.org/1999/xlink" x="0px" y="0px"
	 viewBox="0 0 512 512" style="enable-background:new 0 0 512 512;" xml:space="preserve">
<g>
	<g>
		<path d="M256.001,412.393c-19.364,0-35.119,15.754-35.119,35.119s15.754,35.119,35.119,35.119
			c19.365,0,35.119-15.754,35.119-35.119S275.365,412.393,256.001,412.393z"/>
	</g>
</g>
<g>
	<g>
		<path d="M256.001,0C164.711,0,90.441,74.27,90.441,165.559v12.402c0,36.722,7.125,72.543,21.177,106.47
			c14.052,33.927,34.344,64.294,60.311,90.261c11.371,11.371,26.489,17.633,42.57,17.633h83.001c16.08,0,31.199-6.262,42.571-17.634
			c25.967-25.966,46.258-56.334,60.31-90.261s21.177-69.748,21.177-106.47v-12.401C421.56,74.27,347.291,0,256.001,0z
			 M318.785,353.406c-5.684,5.685-13.243,8.816-21.284,8.816h-83.001c-8.04,0-15.6-3.132-21.285-8.817
			c-41.021-41.021-65.909-93.876-71.476-150.866c56.833-1.529,110.075-15.774,150.869-40.515
			c23.758-14.409,41.954-31.518,53.93-50.347c3.672,6.999,8.067,13.554,13.138,19.534c14.125,16.66,32.116,27.333,51.74,30.956
			c0.028,1.127,0.043,2.258,0.043,3.391v12.403h0C391.458,244.236,365.649,306.543,318.785,353.406z"/>
	</g>
</g>
<g>
	<g>
		<path d="M201.621,411.56l-71.044-28.536V512l71.044-28.536c-6.842-10.316-10.841-22.674-10.841-35.952
			S194.779,421.875,201.621,411.56z"/>
	</g>
</g>
<g>
	<g>
		<path d="M310.38,411.56c6.842,10.315,10.841,22.673,10.841,35.951s-3.998,25.637-10.841,35.951l71.044,28.536V383.022
			L310.38,411.56z"/>
	</g>
</g>
<g>
</g>
<g>
</g>
<g>
</g>
<g>
</g>
<g>
</g>
<g>
</g>
<g>
</g>
<g>
</g>
<g>
</g>
<g>
</g>
<g>
</g>
<g>
</g>
<g>
</g>
<g>
</g>
<g>
</g>
</svg>
