<?xml version="1.0" encoding="iso-8859-1"?>
<!-- Generator: Adobe Illustrator 19.0.0, SVG Export Plug-In . SVG Version: 6.00 Build 0)  -->
<svg version="1.1" id="Capa_1" xmlns="http://www.w3.org/2000/svg" xmlns:xlink="http://www.w3.org/1999/xlink" x="0px" y="0px"
	 viewBox="0 0 512 512" style="enable-background:new 0 0 512 512;" xml:space="preserve">
<path style="fill:#D9CCBC;" d="M341.278,53.712L311.012,162.58H198.883L170.526,52.907c-6.181-23.889,9.194-48.449,33.558-52.35
	C206.406,0.196,208.779,0,211.194,0c7.616,0,14.787,1.899,21.124,5.273c11.723,6.233,20.546,17.481,23.858,31.03
	C261.263,15.438,279.466,0,301.147,0c0.599,0,1.197,0.01,1.796,0.031C329.927,1.104,348.512,27.697,341.278,53.712z"/>
<path style="fill:#EBE5DD;" d="M341.278,53.712L311.012,162.58h-70.336L212.308,52.907c-4.922-19.06,3.87-38.553,20.009-47.634
	c11.723,6.233,20.546,17.481,23.858,31.03C261.263,15.438,279.466,0,301.147,0c0.599,0,1.197,0.01,1.796,0.031
	C329.927,1.104,348.512,27.697,341.278,53.712z"/>
<path style="fill:#C0AB91;" d="M324.012,115.819l-12.999,46.76H198.881l-11.974-46.325c21.341-8.61,44.666-13.344,69.093-13.344
	C280.015,102.91,302.961,107.488,324.012,115.819z"/>
<path style="fill:#B39A7C;" d="M240.676,162.58h-41.793l-11.981-46.323c12.383-4.995,25.427-8.689,38.976-10.907L240.676,162.58z"/>
<path style="fill:#C0AB91;" d="M441.035,325.82v153.334c0,18.141-14.168,32.846-31.649,32.846
	c-14.787,0-27.202-10.526-30.679-24.766C375.239,501.474,362.825,512,348.037,512c-14.798,0-27.212-10.526-30.679-24.766
	C313.881,501.474,301.467,512,286.679,512c-14.787,0-27.212-10.526-30.679-24.766C252.533,501.474,240.108,512,225.321,512
	s-27.202-10.526-30.679-24.766C191.174,501.474,178.76,512,163.973,512c-14.798,0-27.212-10.526-30.679-24.766
	c-2.642,10.825-10.453,19.503-20.535,23.043c-3.189,1.114-6.594,1.723-10.144,1.723c-17.481,0-31.649-14.705-31.649-32.846V325.82
	c0-102.192,82.843-185.034,185.035-185.034c7.069,0,14.034,0.392,20.896,1.166C369.254,152.333,441.035,230.697,441.035,325.82z"/>
<path style="fill:#D9CCBC;" d="M441.035,325.82v153.334c0,18.141-14.168,32.846-31.649,32.846
	c-14.787,0-27.202-10.526-30.679-24.766C375.239,501.474,362.825,512,348.037,512c-14.798,0-27.212-10.526-30.679-24.766
	C313.881,501.474,301.467,512,286.679,512c-14.787,0-27.212-10.526-30.679-24.766C252.533,501.474,240.108,512,225.321,512
	s-27.202-10.526-30.679-24.766C191.174,501.474,178.76,512,163.973,512c-14.798,0-27.212-10.526-30.679-24.766
	c-2.642,10.825-10.453,19.503-20.535,23.043V325.82c0-95.123,71.781-173.487,164.138-183.868
	C369.254,152.333,441.035,230.697,441.035,325.82z"/>
<g>
	<path style="fill:#EBE5DD;" d="M217.015,431.223c-5.38,0-9.747,4.366-9.747,9.747c0,5.379,4.366,9.747,9.747,9.747
		c5.379,0,9.747-4.367,9.747-9.747C226.761,435.589,222.394,431.223,217.015,431.223z"/>
	<path style="fill:#EBE5DD;" d="M139.045,431.223c-5.38,0-9.747,4.366-9.747,9.747c0,5.379,4.366,9.747,9.747,9.747
		c5.379,0,9.747-4.367,9.747-9.747C148.791,435.589,144.424,431.223,139.045,431.223z"/>
	<path style="fill:#EBE5DD;" d="M178.03,431.223c-5.38,0-9.747,4.366-9.747,9.747c0,5.379,4.366,9.747,9.747,9.747
		c5.379,0,9.747-4.367,9.747-9.747C187.776,435.589,183.409,431.223,178.03,431.223z"/>
	<path style="fill:#EBE5DD;" d="M100.06,431.223c-5.38,0-9.747,4.366-9.747,9.747c0,5.379,4.366,9.747,9.747,9.747
		c5.379,0,9.747-4.367,9.747-9.747C109.805,435.589,105.439,431.223,100.06,431.223z"/>
	<path style="fill:#EBE5DD;" d="M294.985,431.223c-5.38,0-9.747,4.366-9.747,9.747c0,5.379,4.365,9.747,9.747,9.747
		c5.379,0,9.747-4.367,9.747-9.747C304.732,435.589,300.365,431.223,294.985,431.223z"/>
	<path style="fill:#EBE5DD;" d="M372.955,431.223c-5.38,0-9.747,4.366-9.747,9.747c0,5.379,4.365,9.747,9.747,9.747
		c5.379,0,9.747-4.367,9.747-9.747C382.702,435.589,378.335,431.223,372.955,431.223z"/>
	<path style="fill:#EBE5DD;" d="M333.97,431.223c-5.38,0-9.747,4.366-9.747,9.747c0,5.379,4.365,9.747,9.747,9.747
		c5.379,0,9.747-4.367,9.747-9.747C343.717,435.589,339.35,431.223,333.97,431.223z"/>
	<path style="fill:#EBE5DD;" d="M256,431.223c-5.38,0-9.747,4.366-9.747,9.747c0,5.379,4.366,9.747,9.747,9.747
		c5.379,0,9.747-4.367,9.747-9.747C265.747,435.589,261.379,431.223,256,431.223z"/>
	<path style="fill:#EBE5DD;" d="M411.94,431.223c-5.38,0-9.747,4.366-9.747,9.747c0,5.379,4.365,9.747,9.747,9.747
		c5.379,0,9.747-4.367,9.747-9.747C421.687,435.589,417.32,431.223,411.94,431.223z"/>
	<path style="fill:#EBE5DD;" d="M256.557,146.348c0,0-5.572,193.641-179.328,250.448l-6.264,1.362V325.82
		c0-102.192,82.843-185.035,185.035-185.035L256.557,146.348z"/>
	<path style="fill:#EBE5DD;" d="M441.035,325.82v72.596l-6.264-1.62c-173.756-56.807-179.328-250.448-179.328-250.448l0.557-5.562
		C358.192,140.786,441.035,223.629,441.035,325.82z"/>
	<path style="fill:#EBE5DD;" d="M256.338,140.786c-101.957-0.182-185.373,84.662-185.373,186.62v70.753l6.264-1.362
		c122.19-39.949,161.208-147.563,173.605-207.918c1.151-5.601,9.181-5.601,10.332,0c12.396,60.355,51.414,167.97,173.605,207.918
		l6.264,1.62V325.82C441.035,223.741,358.374,140.968,256.338,140.786z"/>
</g>
<path style="fill:#D9CCBC;" d="M256.341,140.786c6.945,0,13.797,0.413,20.546,1.166c-92.357,10.391-164.128,88.746-164.128,183.868
	v56.415c-10.98,5.5-22.806,10.402-35.529,14.56l-6.264,1.362v-70.749C70.965,225.445,151.349,140.786,256.341,140.786z"/>
<g>
</g>
<g>
</g>
<g>
</g>
<g>
</g>
<g>
</g>
<g>
</g>
<g>
</g>
<g>
</g>
<g>
</g>
<g>
</g>
<g>
</g>
<g>
</g>
<g>
</g>
<g>
</g>
<g>
</g>
</svg>
